<?xml version="1.0" encoding="UTF-8" standalone="no"?><!DOCTYPE svg PUBLIC "-//W3C//DTD SVG 1.1//EN" "http://www.w3.org/Graphics/SVG/1.1/DTD/svg11.dtd"><svg width="100%" height="100%" viewBox="0 0 89 89" version="1.1" xmlns="http://www.w3.org/2000/svg" xmlns:xlink="http://www.w3.org/1999/xlink" xml:space="preserve" xmlns:serif="http://www.serif.com/" style="fill-rule:evenodd;clip-rule:evenodd;stroke-linejoin:round;stroke-miterlimit:2;"><path id="Person" d="M44.721,0.55c-24.138,0 -43.728,19.59 -43.728,43.728c0,24.139 19.59,43.729 43.728,43.729c24.138,0 43.729,-19.59 43.729,-43.729c0,-24.138 -19.591,-43.728 -43.729,-43.728Zm26.708,73.811c8.295,-7.37 13.522,-18.117 13.522,-30.083c0,-22.213 -18.016,-40.23 -40.23,-40.23c-22.214,0 -40.23,18.017 -40.23,40.23c0,11.966 5.227,22.713 13.522,30.083c4.75,-0.147 11.245,1.051 17.117,-5.551c1.717,-1.931 1.356,-7.21 0.846,-8.789c-2.066,-1.017 -3.401,-4.049 -3.499,-10.495c-1.919,0.029 -3.152,-0.649 -3.498,-1.749c-1.242,-3.957 -2.828,-8.155 0,-12.244c-3.814,-14.468 5.248,-22.739 15.742,-22.739c10.495,0 19.557,8.271 15.742,22.739c2.828,4.089 1.242,8.287 0,12.244c-0.345,1.1 -1.578,1.778 -3.498,1.749c-0.098,6.446 -1.433,9.478 -3.498,10.495c-0.51,1.579 -0.871,6.858 0.846,8.789c5.872,6.602 12.367,5.404 17.116,5.551Z"/></svg>